<?xml version="1.0" standalone="no"?><!DOCTYPE svg PUBLIC "-//W3C//DTD SVG 1.1//EN" "http://www.w3.org/Graphics/SVG/1.1/DTD/svg11.dtd"><svg t="1603356208784" class="icon" viewBox="0 0 1024 1024" version="1.1" xmlns="http://www.w3.org/2000/svg" p-id="3931" xmlns:xlink="http://www.w3.org/1999/xlink" width="200" height="200"><defs><style type="text/css"></style></defs><path d="M683.648358 278.889825l0 49.074695 0 417.9643c0 46.979988-38.090527 85.066421-85.070514 85.066421L277.959639 830.995241c-46.979988 0-85.070514-38.086433-85.070514-85.066421L192.889125 278.07425c0-46.984081 38.090527-85.070514 85.070514-85.070514l320.618205 0c46.979988 0 85.070514 38.086433 85.070514 85.070514L683.648358 278.889825 683.648358 278.889825zM683.648358 866.938871l0 13.131065 98.149391 0c54.203506 0 98.153484-43.945885 98.153484-98.149391L879.951233 389.30661c0-54.206576-43.949978-98.149391-98.153484-98.149391L732.72203 291.157219l0-49.074695c0-54.210669-43.945885-98.153484-98.153484-98.153484L241.962797 143.92904c-54.203506 0-98.149391 43.942815-98.149391 98.153484l0 539.838022c0 54.203506 43.945885 98.149391 98.149391 98.149391l392.605749 0C652.448776 880.069937 669.210531 875.280864 683.648358 866.938871L683.648358 866.938871zM830.872444 745.92882c0 46.979988-38.086433 85.066421-85.066421 85.066421l-26.214035 0c8.350179-14.446014 13.131065-31.198559 13.131065-49.074695L732.723054 340.231915l13.08297 0c46.979988 0 85.066421 38.08234 85.066421 85.062328l0 0.819668L830.872444 745.92882 830.872444 745.92882zM291.041586 671.495574c0 13.550621 10.984169 12.267395 24.535813 12.267395l245.381663 0c13.550621 0 24.534789 1.279133 24.534789-12.267395 0-13.550621-10.984169-36.807301-24.534789-36.807301L315.577399 634.688273C302.025755 634.688273 291.041586 657.94086 291.041586 671.495574L291.041586 671.495574zM291.041586 524.267395c0 13.550621 10.984169 12.267395 24.535813 12.267395l245.381663 0c13.550621 0 24.534789 1.283226 24.534789-12.267395 0-13.550621-10.984169-36.807301-24.534789-36.807301L315.577399 487.460094C302.025755 487.460094 291.041586 510.716774 291.041586 524.267395L291.041586 524.267395zM291.041586 377.039215c0 13.550621 10.984169 12.271488 24.535813 12.271488l245.381663 0c13.550621 0 24.534789 1.279133 24.534789-12.271488 0-13.550621-10.984169-36.807301-24.534789-36.807301L315.577399 340.231915C302.025755 340.231915 291.041586 363.488595 291.041586 377.039215L291.041586 377.039215zM291.041586 377.039215" p-id="3932" fill="#ffffff"></path></svg>